{"title":"The Onion Movie 2008.DVDRip.x264 . NVEE","uid":8835315,"size":557187811,"categoryP":"video","categoryS":"movies","magnet":"?xt=urn:btih:fdd7dfafdf68cfd969577b8ab986e70740158b99&amp;dn=The+Onion+Movie+2008.DVDRip.x264+.+NVEE&amp;tr=udp%3A%2F%2Ftracker.openbittorrent.com%3A80&amp;tr=udp%3A%2F%2Fopen.demonii.com%3A1337&amp;tr=udp%3A%2F%2Ftracker.coppersurfer.tk%3A6969&amp;tr=udp%3A%2F%2Fexodus.desync.com%3A6969","seeders":1,"leechers":0,"uploader":".NVEE","files":3,"time":1377099642,"description":"FULL_INFOs\n\n\n99.99% --- SYNCED GUARANTEED \n\n&quot;Totally scrutinized / analyzed to be a verified torrent.&quot;\n\nSource : DVD\n\nMy Media Player of Choice &quot;VLC Media Player&quot;\n\nSpoken Language : English Only\n\nAudio : 2 ~ Channels Only\n\n\n &lt;a href=&quot;\nhttp://www.imdb.com/title/tt0392878/&quot; rel=&quot;nofollow&quot; target=&quot;_NEW&quot;&gt;\nhttp://www.imdb.com/title/tt0392878/&lt;/a&gt;\n\n\n\nSubs Info : MULTI_SUBS\n\n &lt;a href=&quot;\nhttp://www.subtitleseeker.com/0392878/The+Onion+Movie/Subtitles/&quot; rel=&quot;nofollow&quot; target=&quot;_NEW&quot;&gt;\nhttp://www.subtitleseeker.com/0392878/The+Onion+Movie/Subtitles/&lt;/a&gt;\n\n153 Subtitles In 28 Languages Use Link Provided \n &lt;a href=&quot;\nhttp://www.subtitleseeker.com/0392878/The+Onion+Movie/Subtitles/&quot; rel=&quot;nofollow&quot; target=&quot;_NEW&quot;&gt;\nhttp://www.subtitleseeker.com/0392878/The+Onion+Movie/Subtitles/&lt;/a&gt;\n\n153 Subtitles In 28 Languages Only @ SubtitleSeeker\n &lt;a href=&quot;\nhttp://www.subtitleseeker.com/0392878/The+Onion+Movie/Subtitles/&quot; rel=&quot;nofollow&quot; target=&quot;_NEW&quot;&gt;\nhttp://www.subtitleseeker.com/0392878/The+Onion+Movie/Subtitles/&lt;/a&gt;\n\nAll .srt subs can be turned On/Off\n\n\n &lt;a href=&quot;\nhttp://www.imdb.com/title/tt0392878/&quot; rel=&quot;nofollow&quot; target=&quot;_NEW&quot;&gt;\nhttp://www.imdb.com/title/tt0392878/&lt;/a&gt;\n\n\n\nGeneral\n\nComplete name : The Onion Movie 2008.DVDRip.x264 . NVEE.mp4\nFormat : MPEG-4\nFormat profile : Base Media\nCodec ID : isom\nFile size : 531 MiB\nDuration : 1h 20mn\nOverall bit rate : 925 Kbps\nEncoded date : UTC 2013-03-15 03:46:00\nTagged date : UTC 2013-03-15 03:46:00\n\nVideo\n\nID : 1\nFormat : AVC\nFormat/Info : Advanced Video Codec\nFormat profile : &lt;a class=&quot;__cf_email__&quot; href=&quot;/cdn-cgi/l/email-protection&quot; data-cfemail=&quot;672f0e000f272b554956&quot;&gt;[email&amp;#160;protected]&lt;/a&gt;&lt;script cf-hash='f9e31' type=&quot;text/javascript&quot;&gt;\n/* &lt;![CDATA[ */!function(){try{var t=&quot;currentScript&quot;in document?document.currentScript:function(){for(var t=document.getElementsByTagName(&quot;script&quot;),e=t.length;e--;)if(t[e].getAttribute(&quot;cf-hash&quot;))return t[e]}();if(t&amp;&amp;t.previousSibling){var e,r,n,i,c=t.previousSibling,a=c.getAttribute(&quot;data-cfemail&quot;);if(a){for(e=&quot;&quot;,r=parseInt(a.substr(0,2),16),n=2;a.length-n;n+=2)i=parseInt(a.substr(n,2),16)^r,e+=String.fromCharCode(i);e=document.createTextNode(e),c.parentNode.replaceChild(e,c)}}}catch(u){}}();/* ]]&gt; */&lt;/script&gt;\nFormat settings, CABAC : Yes\nFormat settings, ReFrames : 4 frames\nCodec ID : avc1\nCodec ID/Info : Advanced Video Coding\nDuration : 1h 20mn\nBit rate : 538 Kbps\nMaximum bit rate : 3 462 Kbps\nWidth : 592 pixels\nHeight : 320 pixels\nDisplay aspect ratio : 1.85:1\nFrame rate mode : Constant\nFrame rate : 23.976 fps\nColor space : YUV\nChroma subsampling : 4:2:0\nBit depth : 8 bits\nScan type : Progressive\nBits/(Pixel*Frame) : 0.118\nStream size : 309 MiB (58%)\nTitle : 264#trackID=1:fps=&lt;a class=&quot;__cf_email__&quot; href=&quot;/cdn-cgi/l/email-protection&quot; data-cfemail=&quot;f4c6c7dacdc3c2b4b3a4b5b7c4dac1dac5d9b0b1a2d9869182c0c6ccc7&quot;&gt;[email&amp;#160;protected]&lt;/a&gt;&lt;script cf-hash='f9e31' type=&quot;text/javascript&quot;&gt;\n/* &lt;![CDATA[ */!function(){try{var t=&quot;currentScript&quot;in document?document.currentScript:function(){for(var t=document.getElementsByTagName(&quot;script&quot;),e=t.length;e--;)if(t[e].getAttribute(&quot;cf-hash&quot;))return t[e]}();if(t&amp;&amp;t.previousSibling){var e,r,n,i,c=t.previousSibling,a=c.getAttribute(&quot;data-cfemail&quot;);if(a){for(e=&quot;&quot;,r=parseInt(a.substr(0,2),16),n=2;a.length-n;n+=2)i=parseInt(a.substr(n,2),16)^r,e+=String.fromCharCode(i);e=document.createTextNode(e),c.parentNode.replaceChild(e,c)}}}catch(u){}}();/* ]]&gt; */&lt;/script&gt;\nWriting library : x264 core 129 r2245 bc13772\nEncoded date : UTC 2013-03-15 03:46:00\nTagged date : UTC 2013-03-15 03:46:17\n\nAudio\n\nID : 2\nFormat : AC-3\nFormat/Info : Audio Coding 3\nMode extension : CM (complete main)\nFormat settings, Endianness : Big\nCodec ID : ac-3\nDuration : 1h 20mn\nBit rate mode : Constant\nBit rate : 384 Kbps\nChannel(s) : 2 channels\nChannel positions : Front: L R\nSampling rate : 48.0 KHz\nBit depth : 16 bits\nCompression mode : Lossy\nStream size : 221 MiB (42%)\nTitle : ac3#trackID=&lt;a class=&quot;__cf_email__&quot; href=&quot;/cdn-cgi/l/email-protection&quot; data-cfemail=&quot;90a1d0d7c0d1d3a0bea5bea1bdd4d5c6bde2f5e6a4a2a8a3&quot;&gt;[email&amp;#160;protected]&lt;/a&gt;&lt;script cf-hash='f9e31' type=&quot;text/javascript&quot;&gt;\n/* &lt;![CDATA[ */!function(){try{var t=&quot;currentScript&quot;in document?document.currentScript:function(){for(var t=document.getElementsByTagName(&quot;script&quot;),e=t.length;e--;)if(t[e].getAttribute(&quot;cf-hash&quot;))return t[e]}();if(t&amp;&amp;t.previousSibling){var e,r,n,i,c=t.previousSibling,a=c.getAttribute(&quot;data-cfemail&quot;);if(a){for(e=&quot;&quot;,r=parseInt(a.substr(0,2),16),n=2;a.length-n;n+=2)i=parseInt(a.substr(n,2),16)^r,e+=String.fromCharCode(i);e=document.createTextNode(e),c.parentNode.replaceChild(e,c)}}}catch(u){}}();/* ]]&gt; */&lt;/script&gt;\nEncoded date : UTC 2013-03-15 03:46:12\nTagged date : UTC 2013-03-15 03:46:17\n\n\n &lt;a href=&quot;\nhttp://www.imdb.com/title/tt0392878/&quot; rel=&quot;nofollow&quot; target=&quot;_NEW&quot;&gt;\nhttp://www.imdb.com/title/tt0392878/&lt;/a&gt;\n\n\n\nSynopsis\n\nThe plot revolves around a fictitious Onion television news anchorman, Norm Archer (Len Cariou), who is forced to face the inevitability of a corporate takeover by the Onions perennial fictitious multinational, Global Tetrahedron. Onion news is described as &quot;fair and balanced&quot; in the context of the film. The plot serves as a springboard for various comedy sketches featuring The Onion's satirical humor. Vignettes include parodies of music videos reminiscent of Britney Spears' work, and Steven Seagal appearing as a parody of the type of action hero he normally portrays. The film is interrupted (fictitiously) by film reviewers and commentators weighing in on the progress of the film, with one commentator preparing to stage an immediate walkout of all African American audience members unless a positive portrayal of an African American is inserted into the film.\n\nEnjoy!\n\nSee_Me_Torrents'n_Seed _Me_Torrents.","torrent":{"xt":"urn:btih:fdd7dfafdf68cfd969577b8ab986e70740158b99","amp;dn":"The+Onion+Movie+2008.DVDRip.x264+.+NVEE","amp;tr":["udp%3A%2F%2Ftracker.openbittorrent.com%3A80","udp%3A%2F%2Fopen.demonii.com%3A1337","udp%3A%2F%2Ftracker.coppersurfer.tk%3A6969","udp%3A%2F%2Fexodus.desync.com%3A6969"],"infoHash":"fdd7dfafdf68cfd969577b8ab986e70740158b99","infoHashBuffer":{"type":"Buffer","data":[253,215,223,175,223,104,207,217,105,87,123,138,185,134,231,7,64,21,139,153]},"announce":[],"urlList":[]}}